# xmcd
#
# Track frame offsets:
#	150
#	11861
#	29411
#	43513
#	54962
#	68013
#	79096
#	96557
#	116552
#
# Disc length: 1722 seconds
#
# Revision: 0
# Processed by: cddbd v1.4PL0 Copyright (c) Steve Scherf et al.
# Submitted via: dBpowerAMP V4.0
#
DISCID=7106b809
DTITLE=Ricky Robbins - Instrumental
DYEAR=1900
DGENRE=Country
TTITLE0=She thinks I still care
TTITLE1=There goes
TTITLE2=It must be love
TTITLE3=Together again
TTITLE4=Swinging doors
TTITLE5=Excuse me
TTITLE6=If tomorrow never comes
TTITLE7=All you ever do is bring me down
TTITLE8=Some broken hearts never mend
EXTD=
EXTT0=
EXTT1=
EXTT2=
EXTT3=
EXTT4=
EXTT5=
EXTT6=
EXTT7=
EXTT8=
PLAYORDER=
